<svg width="24" height="24" viewBox="0 0 24 24" fill="none" xmlns="http://www.w3.org/2000/svg">
<path fill-rule="evenodd" clip-rule="evenodd" d="M10.6992 1C5.34248 1 1 5.34248 1 10.6992C1 16.0559 5.34248 20.3984 10.6992 20.3984C12.9893 20.3984 15.094 19.6047 16.7533 18.2774L21.4761 23.0001L23.0001 21.4761L18.2774 16.7533C19.6047 15.094 20.3984 12.9893 20.3984 10.6992C20.3984 5.34248 16.0559 1 10.6992 1ZM3.15538 10.6992C3.15538 6.53286 6.53286 3.15538 10.6992 3.15538C14.8655 3.15538 18.243 6.53286 18.243 10.6992C18.243 14.8655 14.8655 18.243 10.6992 18.243C6.53286 18.243 3.15538 14.8655 3.15538 10.6992Z" fill="#A2A99A"/>
</svg>
