<svg width="19" height="19" viewBox="0 0 19 19" fill="none" xmlns="http://www.w3.org/2000/svg">
<g clip-path="url(#clip0_1729_3782)">
<path d="M9.49987 16.4662C7.20402 16.4662 5.22484 15.7537 3.95817 14.5661C3.95817 14.6453 3.95817 14.6453 3.95817 14.7245C3.95817 16.7037 6.41235 18.2078 9.49987 18.2078C12.5874 18.2078 15.0416 16.7037 15.0416 14.7245C15.0416 14.6453 15.0416 14.6453 15.0416 14.5661C13.7749 15.7537 11.7957 16.4662 9.49987 16.4662Z" fill="#202833"/>
<path d="M14.6457 11.322C14.4874 11.4804 14.2499 11.6387 14.0124 11.7179C13.7749 11.8762 13.5374 11.9554 13.2207 12.1137C12.1916 12.5887 10.8457 12.8262 9.49987 12.8262C8.15403 12.8262 6.80819 12.5887 5.77901 12.1137C5.54151 12.0345 5.22484 11.8762 4.98734 11.7179C4.74984 11.5595 4.59151 11.4804 4.35401 11.322C4.19567 11.2429 4.1165 11.1637 3.95817 11.0054C3.95817 11.1637 3.95817 11.4012 3.95817 11.5595C3.95817 11.5595 3.95817 11.6387 3.95817 11.7179C3.95817 12.0345 4.03734 12.272 4.1165 12.5095C4.19567 12.747 4.35401 12.9845 4.51234 13.1429C5.46235 14.2512 7.28319 15.0429 9.49987 15.0429C11.7165 15.0429 13.5374 14.2512 14.4874 13.1429C14.6457 12.9054 14.8041 12.747 14.8832 12.5095C15.0416 12.272 15.0416 11.9554 15.0416 11.7179C15.0416 11.7179 15.0416 11.6387 15.0416 11.5595C15.0416 11.4012 15.0416 11.2429 14.9624 11.0054C14.8832 11.0845 14.7249 11.2429 14.6457 11.322Z" fill="#202833"/>
<path d="M14.2499 7.91848C14.0124 8.07681 13.7749 8.23515 13.5374 8.31432C13.2999 8.47265 12.9832 8.55182 12.6666 8.71015C11.7165 9.02682 10.6082 9.26432 9.4207 9.26432C8.23319 9.26432 7.20402 9.02682 6.25402 8.71015C5.93735 8.55182 5.69985 8.47265 5.38318 8.31432C5.14568 8.23515 4.90818 8.07681 4.74984 7.91848C4.43317 7.76015 4.19567 7.60181 4.03734 7.36431C3.95817 7.60181 3.95817 7.76015 3.95817 7.91848C3.95817 8.07681 3.95817 8.23515 4.03734 8.47265C4.1165 8.71015 4.19567 8.94765 4.35401 9.18515C4.43317 9.42266 4.59151 9.58099 4.74984 9.73932C5.06651 10.056 5.38318 10.2935 5.77901 10.531C6.09568 10.6893 6.33318 10.8477 6.72902 10.9268C7.20402 11.0852 7.75819 11.2435 8.31236 11.3227C8.7082 11.4018 9.10403 11.4018 9.49987 11.4018C9.8957 11.4018 10.2915 11.4018 10.6874 11.3227C11.2415 11.2435 11.7957 11.0852 12.2707 10.9268C12.5874 10.8477 12.9041 10.6893 13.2207 10.531C13.6166 10.2935 13.9332 10.056 14.2499 9.73932C14.4082 9.58099 14.5666 9.34349 14.6457 9.18515C14.8041 8.94765 14.8832 8.71015 14.9624 8.47265C15.0416 8.23515 15.0416 8.07681 15.0416 7.91848C15.0416 7.76015 15.0416 7.60181 14.9624 7.36431C14.8041 7.60181 14.5666 7.76015 14.2499 7.91848Z" fill="#202833"/>
<path d="M4.27484 5.54088C4.43317 5.69921 4.59151 5.93671 4.74984 6.09505C5.14568 6.49088 5.62068 6.88672 6.25402 7.12422C6.64985 7.28256 7.04569 7.44089 7.44152 7.52006C8.07486 7.67839 8.78736 7.75756 9.49987 7.75756C10.2124 7.75756 10.9249 7.67839 11.5582 7.52006C11.954 7.44089 12.4291 7.28256 12.7457 7.12422C13.3791 6.88672 13.8541 6.49088 14.2499 6.09505C14.4082 5.93671 14.5666 5.69921 14.6457 5.54088C14.8041 5.30338 14.8832 5.06588 14.9624 4.82837C15.0416 4.67004 15.0416 4.43254 15.0416 4.2742C15.0416 2.29503 12.5874 0.790851 9.49987 0.790851C6.41235 0.790851 3.95817 2.29503 3.95817 4.2742C3.95817 4.43254 3.95817 4.67004 4.03734 4.82837C4.1165 5.06588 4.19567 5.30338 4.27484 5.54088Z" fill="#202833"/>
</g>
<defs>
<clipPath id="clip0_1729_3782">
<rect width="18.9571" height="18.9571" fill="white" transform="scale(1.00227)"/>
</clipPath>
</defs>
</svg>
