<svg width="40" height="40" viewBox="0 0 40 40" fill="none" xmlns="http://www.w3.org/2000/svg">
<g clip-path="url(#clip0_5329_8374)">
<path d="M37.3123 9.95947C35.567 6.93739 33.0572 4.42769 30.0352 2.68246C26.982 0.924997 23.5209 0 19.998 0C16.4752 0 13.0143 0.924997 9.96118 2.68246C6.93876 4.42759 4.42865 6.93729 2.68311 9.95947C0.925267 13.0128 0 16.4743 0 19.9975C0 23.5207 0.925267 26.9821 2.68311 30.0355C4.42884 33.0566 6.93813 35.5657 9.95923 37.3115C13.0127 39.0685 16.4737 39.9933 19.9966 39.9933C23.5195 39.9933 26.9807 39.0685 30.0342 37.3115C33.0558 35.5661 35.5653 33.0569 37.311 30.0355C39.0684 26.9819 39.9934 23.5206 39.9934 19.9975C39.9934 16.4744 39.0684 13.013 37.311 9.95947H37.3123ZM31.6631 21.6595C31.6564 22.0996 31.4786 22.5198 31.1675 22.8312C30.8563 23.1425 30.4362 23.3205 29.9961 23.3275H23.3301V29.9925C23.3239 30.4326 23.1462 30.8531 22.835 31.1644C22.5237 31.4757 22.1033 31.6533 21.6631 31.6595H18.3311C17.8907 31.6538 17.4701 31.4763 17.1587 31.1649C16.8473 30.8535 16.6698 30.4328 16.6641 29.9925V23.3285H9.99805C9.55793 23.3215 9.13781 23.1435 8.82666 22.8322C8.51551 22.5208 8.33776 22.1006 8.33105 21.6605V18.3285C8.33826 17.8886 8.51632 17.4688 8.82739 17.1577C9.13847 16.8466 9.55818 16.6687 9.99805 16.6615H16.6641V9.99747C16.6695 9.55704 16.847 9.13619 17.1584 8.82474C17.4699 8.51329 17.8906 8.33592 18.3311 8.33047H21.6641C22.1044 8.33617 22.5253 8.51365 22.8367 8.82504C23.1481 9.13644 23.3254 9.55712 23.3311 9.99747V16.6615H29.9971C30.4368 16.6687 30.8566 16.8467 31.1675 17.1578C31.4784 17.4689 31.6561 17.8887 31.6631 18.3285V21.6595Z" fill="#03947A"/>
</g>
<defs>
<clipPath id="clip0_5329_8374">
<rect width="39.994" height="39.993" fill="white"/>
</clipPath>
</defs>
</svg>
