<svg width="18" height="21" viewBox="0 0 18 21" fill="none" xmlns="http://www.w3.org/2000/svg">
<path fill-rule="evenodd" clip-rule="evenodd" d="M12.0362 6.21967C12.3291 6.51256 12.3291 6.98744 12.0362 7.28033L8.53617 10.7803C8.24327 11.0732 7.76847 11.0732 7.47557 10.7803L5.47553 8.7803C5.18264 8.48744 5.18264 8.01256 5.47553 7.71967C5.76843 7.42678 6.2433 7.42678 6.53617 7.71967L8.00587 9.1893L10.9756 6.21967C11.2685 5.92678 11.7433 5.92678 12.0362 6.21967Z" fill="#405066"/>
<path fill-rule="evenodd" clip-rule="evenodd" d="M0.030248 7.60685C0.384578 3.30824 3.97673 0 8.28989 0H8.72189C13.0351 0 16.6272 3.30824 16.9815 7.60685C17.1719 9.916 16.4586 12.2089 14.9919 14.0026L10.1989 19.8644C9.32389 20.9345 7.68789 20.9345 6.81289 19.8644L2.01985 14.0026C0.553188 12.2089 -0.160092 9.916 0.030248 7.60685ZM8.28989 1.5C4.75738 1.5 1.81537 4.20948 1.52518 7.73008C1.36676 9.6519 1.96041 11.5602 3.18107 13.0531L7.97409 18.9149C8.24899 19.251 8.76279 19.251 9.03769 18.9149L13.8307 13.0531C15.0514 11.5602 15.645 9.6519 15.4866 7.73008C15.1964 4.20948 12.2544 1.5 8.72189 1.5H8.28989Z" fill="#405066"/>
</svg>
