<svg width="23" height="23" viewBox="0 0 23 23" fill="none" xmlns="http://www.w3.org/2000/svg">
<path d="M15.4372 4.18777L18.6192 7.36975M1.375 21.625L1.42838 21.2513C1.61728 19.929 1.71173 19.2679 1.92657 18.6506C2.11721 18.1029 2.37765 17.582 2.70144 17.1009C3.06634 16.5587 3.53859 16.0864 4.48309 15.1419L17.5871 2.03792C18.4658 1.15924 19.8904 1.15924 20.7691 2.03792C21.6477 2.91659 21.6477 4.34122 20.7691 5.2199L7.42462 18.5643C6.56777 19.4212 6.13934 19.8496 5.65135 20.1903C5.2182 20.4927 4.75104 20.7433 4.25947 20.9368C3.70567 21.1547 3.11172 21.2746 1.92392 21.5142L1.375 21.625Z" stroke="#38B000" stroke-width="1.4" stroke-linecap="round" stroke-linejoin="round"/>
</svg>
