<svg width="24" height="24" viewBox="0 0 24 24" fill="none" xmlns="http://www.w3.org/2000/svg">
<rect width="24" height="24" rx="5" fill="#070D2D"/>
<path fill-rule="evenodd" clip-rule="evenodd" d="M13.9617 8.2099C12.6651 7.99253 11.334 7.99253 10.0375 8.2099C9.7935 8.2508 9.5997 8.43827 9.55106 8.67974C9.10853 10.8767 9.08438 13.1375 9.47989 15.3434L9.56167 15.7995L11.3969 14.056C11.7346 13.7352 12.2645 13.7352 12.6022 14.056L14.4375 15.7995L14.5193 15.3434C14.9148 13.1375 14.8906 10.8767 14.4481 8.67974C14.3995 8.43827 14.2057 8.2508 13.9617 8.2099ZM9.91349 7.47022C11.2921 7.23909 12.707 7.23909 14.0857 7.47022C14.6353 7.56236 15.0731 7.98427 15.1833 8.53164C15.6445 10.8211 15.6697 13.177 15.2575 15.4758L15.1468 16.0934C15.0538 16.6119 14.4218 16.8191 14.0399 16.4563L12.0857 14.5998C12.0374 14.5539 11.9617 14.5539 11.9135 14.5998L9.95923 16.4563C9.57738 16.8191 8.94536 16.6119 8.85241 16.0934L8.74166 15.4758C8.32951 13.177 8.35467 10.8211 8.81583 8.53164C8.92609 7.98427 9.36389 7.56236 9.91349 7.47022Z" fill="white"/>
</svg>
