<svg width="18" height="20" viewBox="0 0 18 20" fill="none" xmlns="http://www.w3.org/2000/svg">
<path d="M7.66667 6.14286H14.3333M3.66667 6.14286H5M7.66667 10H14.3333M3.66667 10H5M7.66667 13.8571H14.3333M3.66667 13.8571H5M17 16.4286V3.57143C17 2.88944 16.719 2.23539 16.219 1.75315C15.7189 1.27092 15.0406 1 14.3333 1H3.66667C2.95942 1 2.28115 1.27092 1.78105 1.75315C1.28095 2.23539 1 2.88944 1 3.57143V16.4286C1 17.1106 1.28095 17.7646 1.78105 18.2468C2.28115 18.7291 2.95942 19 3.66667 19H14.3333C15.0406 19 15.7189 18.7291 16.219 18.2468C16.719 17.7646 17 17.1106 17 16.4286Z" stroke="#405066" stroke-linecap="round" stroke-linejoin="round"/>
</svg>
