<svg width="19" height="23" viewBox="0 0 19 23" fill="none" xmlns="http://www.w3.org/2000/svg">
<path d="M18.4953 5.20629L13.7355 4.85633L13.1765 4.81524L13.1992 5.37523C13.235 6.25812 12.8353 6.79852 12.1605 7.52216C12.0872 7.60072 12.011 7.68108 11.9326 7.7638C11.2933 8.43801 10.5049 9.26952 9.94171 10.5671L9.92909 10.5962L9.92024 10.6267L9.39829 12.423C9.05366 12.2161 8.85174 11.9482 8.76406 11.6109C8.63041 11.097 8.72619 10.2989 9.2847 9.08755C9.90537 7.94508 10.0882 6.9408 9.8725 6.10837C9.65207 5.25756 9.0417 4.68659 8.29801 4.37929C6.85106 3.78139 4.79001 4.12142 3.43309 5.3193L3.39364 5.35412L3.36231 5.39639L1.49196 7.9196C1.14444 8.12387 0.920815 8.16117 0.800085 8.15239C0.696152 8.14483 0.637653 8.10301 0.590368 8.02658C0.532442 7.93294 0.491221 7.77683 0.501579 7.58058C0.511518 7.39225 0.567363 7.20723 0.653772 7.06586L3.2533 3.44634L7.96537 0.863659L7.99654 0.846578L8.02497 0.82526C8.25602 0.652052 8.66192 0.514982 9.34558 0.500039L18.4549 0.567224L18.4953 5.20629ZM4.71429 6.45393C4.93247 6.27307 5.18093 6.11722 5.44651 5.99716C5.24846 6.33898 5.1265 6.67015 5.03198 7.05563C4.84639 7.51792 4.6681 7.78804 4.52047 7.91284C4.4535 7.96946 4.41021 7.98133 4.38754 7.98412C4.36626 7.98673 4.32033 7.9868 4.23695 7.94344L3.91436 7.77572L3.65537 8.03091C3.54255 8.14207 3.44095 8.22676 3.35041 8.28918L4.71429 6.45393ZM2.6581 10.8668C2.69843 10.7398 2.74072 10.6622 2.77178 10.618C2.8135 10.644 2.87914 10.6958 2.96525 10.7986L2.96523 10.7986L2.96817 10.8021C3.17233 11.0415 3.38972 11.478 3.50089 12.0321C3.60639 12.5778 3.56869 13.0705 3.46716 13.3785L3.46715 13.3784L3.46601 13.382C3.42558 13.5077 3.384 13.5854 3.35338 13.6298C3.30973 13.6019 3.24419 13.5486 3.16325 13.4519L3.16327 13.4519L3.15997 13.448C2.95062 13.2031 2.73391 12.7668 2.62797 12.2203C2.5213 11.665 2.55572 11.1775 2.65639 10.8721L2.65642 10.8721L2.6581 10.8668ZM2.81228 10.5716C2.81228 10.5716 2.81204 10.5718 2.81155 10.5721L2.81228 10.5716ZM4.65994 17.163L4.66175 17.1602C4.83771 16.892 5.19457 16.5618 5.6793 16.3155C6.10617 16.1041 6.51987 16.0035 6.81861 15.999C6.87875 15.9991 6.90489 15.9994 6.93202 16.0019L6.94299 16.003L6.95399 16.0035C7.09003 16.0101 7.17302 16.0329 7.21793 16.0513C7.2061 16.1032 7.17334 16.192 7.0912 16.3154L7.08938 16.3182C6.9144 16.5849 6.55794 16.9112 6.06974 17.1589C5.58397 17.4052 5.1134 17.4941 4.80321 17.4752L4.80321 17.4752L4.79714 17.4749C4.66112 17.4683 4.57803 17.4445 4.53317 17.4255C4.54488 17.3748 4.57739 17.287 4.65994 17.163ZM1.09184 21.204L1.09187 21.204L1.09351 21.1984C1.10983 21.1431 1.1823 21.009 1.49886 20.9135C1.64327 20.8708 1.81101 20.8423 1.99839 20.8381C2.23817 20.8342 2.51212 20.871 2.80251 20.9583C3.31351 21.1155 3.70457 21.3938 3.91617 21.6522L3.9166 21.6527C4.13717 21.9213 4.12795 22.0778 4.1099 22.1417C4.09323 22.1967 4.02067 22.3301 3.70051 22.4254L3.7005 22.4253L3.6953 22.4269C3.37839 22.525 2.90858 22.5378 2.40362 22.3814L2.40249 22.3811C1.89357 22.2248 1.5011 21.9475 1.2824 21.6865C1.06123 21.4111 1.07497 21.2588 1.09184 21.204Z" stroke="#405066"/>
</svg>
