<svg width="12" height="12" viewBox="0 0 12 12" fill="none" xmlns="http://www.w3.org/2000/svg">
<path d="M6.64733 1.42404L7.58733 3.30404C7.714 3.56404 8.054 3.81071 8.34066 3.86404L10.0407 4.14404C11.1273 4.32404 11.3807 5.11071 10.6007 5.89737L9.274 7.22404C9.054 7.44404 8.92733 7.87737 9.00066 8.19071L9.38066 9.83071C9.68066 11.124 8.98733 11.6307 7.84733 10.9507L6.254 10.004C5.96733 9.83071 5.48733 9.83071 5.20066 10.004L3.60733 10.9507C2.46733 11.624 1.774 11.124 2.074 9.83071L2.454 8.19071C2.514 7.87071 2.38733 7.43737 2.16733 7.21737L0.840664 5.89071C0.0606644 5.11071 0.313998 4.32404 1.40066 4.13737L3.10066 3.85737C3.38733 3.81071 3.72733 3.55737 3.854 3.29737L4.794 1.41737C5.30733 0.404038 6.134 0.404039 6.64733 1.42404Z" fill="#FBBB00"/>
</svg>
