<svg width="44" height="44" viewBox="0 0 44 44" fill="none" xmlns="http://www.w3.org/2000/svg">
<circle opacity="0.6" cx="22" cy="22" r="22" fill="black" fill-opacity="0.5"/>
<path d="M33.1 16.5999C33.3175 16.5999 33.5276 16.6786 33.6915 16.8216C33.8554 16.9645 33.962 17.162 33.9916 17.3775L34 17.4999V27.7001C34.0001 28.6963 33.6189 29.6548 32.9348 30.3789C32.2507 31.103 31.3154 31.5379 30.3208 31.5943L30.1 31.6003H14.8732L15.7372 32.4643C15.8894 32.6168 15.9819 32.8189 15.9977 33.0339C16.0136 33.2488 15.9518 33.4623 15.8236 33.6355L15.736 33.7363C15.5836 33.8887 15.3816 33.9814 15.1667 33.9975C14.9517 34.0136 14.7382 33.952 14.5648 33.8239L14.464 33.7363L12.064 31.3362L11.9872 31.2498C11.9844 31.2459 11.9816 31.2419 11.9788 31.2378L12.0628 31.3362C11.9259 31.1983 11.8372 31.0199 11.8097 30.8275C11.7823 30.6351 11.8176 30.439 11.9104 30.2682C11.952 30.1935 12.0037 30.1248 12.064 30.0642L14.464 27.6641C14.6248 27.5046 14.8399 27.4115 15.0662 27.4036C15.2926 27.3956 15.5137 27.4733 15.6853 27.6211C15.8569 27.769 15.9665 27.9761 15.9921 28.2012C16.0178 28.4263 15.9576 28.6527 15.8236 28.8354L15.736 28.9362L14.872 29.8002H30.1C30.6272 29.8002 31.1351 29.6018 31.5229 29.2445C31.9106 28.8873 32.1497 28.3972 32.1928 27.8718L32.2 27.7001V17.4999C32.2 17.2612 32.2948 17.0323 32.4636 16.8635C32.6324 16.6947 32.8613 16.5999 33.1 16.5999ZM29.4352 10.1761L29.536 10.2637L31.936 12.6637C31.9667 12.6941 31.9952 12.7266 32.0212 12.761L31.9372 12.6637C32.1043 12.832 32.1986 13.0592 32.1994 13.2964C32.2003 13.5335 32.1079 13.7615 31.942 13.931L31.936 13.9358L29.536 16.3358C29.3752 16.4954 29.1602 16.5884 28.9338 16.5964C28.7074 16.6044 28.4863 16.5267 28.3147 16.3789C28.1431 16.231 28.0335 16.0239 28.0079 15.7988C27.9822 15.5737 28.0424 15.3473 28.1764 15.1646L28.264 15.0638L29.1256 14.1998H13.9C13.373 14.1998 12.8652 14.398 12.4775 14.755C12.0898 15.112 11.8506 15.6018 11.8072 16.127L11.8 16.2998V26.5001C11.7999 26.7282 11.7133 26.9477 11.5576 27.1143C11.402 27.2809 11.1888 27.3822 10.9613 27.3978C10.7338 27.4133 10.5089 27.3419 10.332 27.198C10.1552 27.0541 10.0395 26.8484 10.0084 26.6225L10 26.5001V16.2998C9.99993 15.3037 10.3811 14.3452 11.0652 13.6211C11.7493 12.897 12.6846 12.4621 13.6792 12.4057L13.9 12.3997H29.1268L28.2628 11.5357C28.1106 11.3832 28.0181 11.1811 28.0023 10.9661C27.9864 10.7512 28.0482 10.5377 28.1764 10.3645L28.264 10.2637C28.4164 10.1113 28.6184 10.0186 28.8333 10.0025C29.0483 9.98643 29.2618 10.048 29.4352 10.1761ZM22 17.1999C23.273 17.1999 24.4939 17.7056 25.3941 18.6058C26.2943 19.506 26.8 20.7269 26.8 22C26.8 23.2731 26.2943 24.494 25.3941 25.3942C24.4939 26.2944 23.273 26.8001 22 26.8001C20.727 26.8001 19.5061 26.2944 18.6059 25.3942C17.7057 24.494 17.2 23.2731 17.2 22C17.2 20.7269 17.7057 19.506 18.6059 18.6058C19.5061 17.7056 20.727 17.1999 22 17.1999ZM22 18.9999C21.2044 18.9999 20.4413 19.316 19.8787 19.8786C19.3161 20.4412 19 21.2043 19 22C19 22.7957 19.3161 23.5588 19.8787 24.1214C20.4413 24.684 21.2044 25.0001 22 25.0001C22.7956 25.0001 23.5587 24.684 24.1213 24.1214C24.6839 23.5588 25 22.7957 25 22C25 21.2043 24.6839 20.4412 24.1213 19.8786C23.5587 19.316 22.7956 18.9999 22 18.9999Z" fill="white"/>
</svg>
