<svg width="31" height="30" viewBox="0 0 31 30" fill="none" xmlns="http://www.w3.org/2000/svg">
<path d="M15.5018 1.22852C12.2168 1.22852 9.55371 3.85859 9.55371 7.10297C9.55371 10.3473 12.2168 12.9774 15.5018 12.9774C18.7869 12.9774 21.4499 10.3473 21.4499 7.10297C21.4499 3.85859 18.7869 1.22852 15.5018 1.22852Z" fill="#9591B5"/>
<path d="M9.15807 16.1094C5.87302 16.1094 3.20996 18.7394 3.20996 21.9838V23.8453C3.20996 25.0252 4.07582 26.0312 5.25495 26.2214C12.0419 27.3158 18.9636 27.3158 25.7504 26.2214C26.9296 26.0312 27.7955 25.0252 27.7955 23.8453V21.9838C27.7955 18.7394 25.1325 16.1094 21.8474 16.1094H21.3066C21.014 16.1094 20.7233 16.1551 20.445 16.2447L19.0722 16.6876C16.7528 17.4354 14.2527 17.4354 11.9332 16.6876L10.5603 16.2447C10.2822 16.1551 9.99138 16.1094 9.69874 16.1094H9.15807Z" fill="#9591B5"/>
</svg>
