<svg width="22" height="22" viewBox="0 0 22 22" fill="none" xmlns="http://www.w3.org/2000/svg">
<path fill-rule="evenodd" clip-rule="evenodd" d="M6.64648 9.16667C6.64648 6.76193 8.59591 4.8125 11.0007 4.8125C13.4054 4.8125 15.3548 6.76193 15.3548 9.16667C15.3548 11.5715 13.4054 13.5208 11.0007 13.5208C8.59591 13.5208 6.64648 11.5715 6.64648 9.16667ZM11.0007 6.1875C9.35534 6.1875 8.02148 7.52131 8.02148 9.16667C8.02148 10.812 9.35534 12.1458 11.0007 12.1458C12.646 12.1458 13.9798 10.812 13.9798 9.16667C13.9798 7.52131 12.646 6.1875 11.0007 6.1875Z" fill="#405066"/>
<path fill-rule="evenodd" clip-rule="evenodd" d="M3.23085 8.11845C3.55565 4.17806 6.84846 1.14551 10.8022 1.14551H11.1982C15.152 1.14551 18.4447 4.17806 18.7695 8.11845C18.944 10.2352 18.2902 12.337 16.9457 13.9812L12.5521 19.3545C11.75 20.3355 10.2504 20.3355 9.44827 19.3545L5.05465 13.9812C3.71021 12.337 3.05637 10.2352 3.23085 8.11845ZM10.8022 2.52051C7.56406 2.52051 4.86721 5.0042 4.6012 8.23141C4.45599 9.99308 5.00017 11.7424 6.1191 13.1108L10.5127 18.4842C10.7647 18.7923 11.2357 18.7923 11.4877 18.4842L15.8813 13.1108C17.0002 11.7424 17.5444 9.99308 17.3992 8.23141C17.1331 5.0042 14.4363 2.52051 11.1982 2.52051H10.8022Z" fill="#405066"/>
<path fill-rule="evenodd" clip-rule="evenodd" d="M3.23085 8.11845C3.55565 4.17806 6.84846 1.14551 10.8022 1.14551H11.1982C15.152 1.14551 18.4447 4.17806 18.7695 8.11845C18.944 10.2352 18.2902 12.337 16.9457 13.9812L12.5521 19.3545C11.75 20.3355 10.2504 20.3355 9.44827 19.3545L5.05465 13.9812C3.71021 12.337 3.05637 10.2352 3.23085 8.11845ZM10.8022 2.52051C7.56406 2.52051 4.86721 5.0042 4.6012 8.23141C4.45599 9.99308 5.00017 11.7424 6.1191 13.1108L10.5127 18.4842C10.7647 18.7923 11.2357 18.7923 11.4877 18.4842L15.8813 13.1108C17.0002 11.7424 17.5444 9.99308 17.3992 8.23141C17.1331 5.0042 14.4363 2.52051 11.1982 2.52051H10.8022Z" fill="#405066"/>
</svg>
