<svg width="31" height="23" viewBox="0 0 31 23" fill="none" xmlns="http://www.w3.org/2000/svg">
<path fill-rule="evenodd" clip-rule="evenodd" d="M7.08618 0.941123C10.7851 0.57351 14.5074 0.605593 18.2007 1.03692L19.1562 1.14851C20.9798 1.36147 22.4474 2.89892 22.7527 4.89993L27.9068 1.85628C28.2562 1.65003 28.6751 1.65215 29.0227 1.86195C29.3703 2.07174 29.6 2.46127 29.6346 2.89922L29.6738 3.39522C30.1122 8.95503 30.1122 14.5469 29.6738 20.1068L29.6346 20.6027C29.6 21.0406 29.3703 21.4301 29.0227 21.64C28.6751 21.8497 28.2562 21.852 27.9068 21.6456L22.7527 18.602C22.4474 20.6031 20.9798 22.1405 19.1562 22.3535L18.2007 22.465C14.5074 22.8964 10.7851 22.9284 7.08618 22.5609L4.59939 22.3136C2.72554 22.1275 1.21153 20.5363 0.939373 18.4671C0.353542 14.0134 0.353542 9.48853 0.939373 5.03475C1.21153 2.96564 2.72554 1.37449 4.59939 1.18827L7.08618 0.941123ZM23.0435 15.8865C23.1696 15.9085 23.2948 15.9539 23.4138 16.0242L27.4306 18.3964C27.7157 13.9718 27.7157 9.53012 27.4306 5.10563L23.4138 7.47771C23.2948 7.54803 23.1696 7.59338 23.0435 7.6154C23.264 10.367 23.264 13.1349 23.0435 15.8865Z" fill="#9591B5"/>
</svg>
