<svg width="16" height="16" viewBox="0 0 16 16" fill="none" xmlns="http://www.w3.org/2000/svg">
<path d="M13.332 4.66602H2.66536C1.92898 4.66602 1.33203 5.26297 1.33203 5.99935V12.666C1.33203 13.4024 1.92898 13.9993 2.66536 13.9993H13.332C14.0684 13.9993 14.6654 13.4024 14.6654 12.666V5.99935C14.6654 5.26297 14.0684 4.66602 13.332 4.66602Z" fill="#040800" stroke="#0F172A" stroke-width="2" stroke-linecap="round" stroke-linejoin="round"/>
<path d="M10.6654 14V3.33333C10.6654 2.97971 10.5249 2.64057 10.2748 2.39052C10.0248 2.14048 9.68565 2 9.33203 2H6.66536C6.31174 2 5.9726 2.14048 5.72256 2.39052C5.47251 2.64057 5.33203 2.97971 5.33203 3.33333V14" fill="black"/>
<path d="M10.6654 14V3.33333C10.6654 2.97971 10.5249 2.64057 10.2748 2.39052C10.0248 2.14048 9.68565 2 9.33203 2H6.66536C6.31174 2 5.9726 2.14048 5.72256 2.39052C5.47251 2.64057 5.33203 2.97971 5.33203 3.33333V14" stroke="#0F172A" stroke-width="2" stroke-linecap="round" stroke-linejoin="round"/>
</svg>
