<svg width="24" height="24" viewBox="0 0 24 24" fill="none" xmlns="http://www.w3.org/2000/svg">
<path d="M14.3643 1.00153C13.0713 -0.333842 10.9296 -0.333842 9.63659 1.00152L3.3212 7.52393C2.95849 7.89852 2.71477 8.37207 2.62072 8.88492C1.85373 13.0676 1.79711 17.3495 2.45325 21.551L2.68555 23.0385C2.75892 23.5083 3.16358 23.8547 3.63911 23.8547H8.05205C8.41549 23.8547 8.71012 23.5601 8.71012 23.1967V13.9837H15.2908V23.1967C15.2908 23.5601 15.5854 23.8547 15.9489 23.8547H20.3617C20.8373 23.8547 21.242 23.5083 21.3153 23.0385L21.5476 21.551C22.2037 17.3495 22.1471 13.0676 21.3802 8.88492C21.2861 8.37207 21.0423 7.89852 20.6796 7.52393L14.3643 1.00153Z" fill="#162802"/>
</svg>
