<svg width="24" height="24" viewBox="0 0 24 24" fill="none" xmlns="http://www.w3.org/2000/svg">
<g clip-path="url(#clip0_0_24)">
<path fill-rule="evenodd" clip-rule="evenodd" d="M12.9302 1.21519C12.9302 0.544065 12.3862 0 11.715 0C11.0439 0 10.4998 0.544065 10.4998 1.21519V2.12658H9.82248C7.11858 2.12658 4.88068 4.22887 4.71191 6.92748L4.44334 11.2213C4.34094 12.8584 3.79133 14.4361 2.85434 15.7824C2.00774 16.9988 2.76143 18.6789 4.23294 18.8555L8.37325 19.3524V20.6582C8.37325 22.5039 9.86939 24 11.715 24C13.5606 24 15.0568 22.5039 15.0568 20.6582V19.3524L19.1971 18.8555C20.6687 18.6789 21.4223 16.9988 20.5757 15.7824C19.6387 14.4361 19.089 12.8584 18.9867 11.2213L18.7182 6.92748C18.5494 4.22887 16.3115 2.12658 13.6076 2.12658H12.9302V1.21519ZM10.196 20.6582C10.196 21.4972 10.8761 22.1772 11.715 22.1772C12.554 22.1772 13.234 21.4972 13.234 20.6582V19.7468H10.196V20.6582Z" fill="#A2A99A"/>
</g>
<defs>
<clipPath id="clip0_0_24">
<rect width="24" height="24" fill="white"/>
</clipPath>
</defs>
</svg>
