<svg width="24" height="24" viewBox="0 0 24 24" fill="none" xmlns="http://www.w3.org/2000/svg">
<path d="M11.5298 1C8.71578 1 6.43457 3.28121 6.43457 6.09524C6.43457 8.90927 8.71578 11.1905 11.5298 11.1905C14.3439 11.1905 16.625 8.90927 16.625 6.09524C16.625 3.28121 14.3439 1 11.5298 1Z" fill="#A2A99A"/>
<path d="M6.09524 13.9082C3.28121 13.9082 1 16.1894 1 19.0034V20.618C1 21.6414 1.7417 22.514 2.75177 22.6789C8.56555 23.6282 14.4948 23.6282 20.3085 22.6789C21.3186 22.514 22.0603 21.6414 22.0603 20.618V19.0034C22.0603 16.1894 19.7792 13.9082 16.9651 13.9082H16.5019C16.2512 13.9082 16.0022 13.9479 15.7638 14.0256L14.5878 14.4097C12.601 15.0584 10.4593 15.0584 8.47246 14.4097L7.29645 14.0256C7.05816 13.9479 6.80906 13.9082 6.55839 13.9082H6.09524Z" fill="#A2A99A"/>
</svg>
