<svg width="24" height="24" viewBox="0 0 24 24" fill="none" xmlns="http://www.w3.org/2000/svg">
<path fill-rule="evenodd" clip-rule="evenodd" d="M5.28645 4.19292C8.25542 3.92745 11.2431 3.95062 14.2076 4.26209L14.9746 4.34268C16.4383 4.49646 17.6162 5.60671 17.8613 7.05171L21.9983 4.85378C22.2787 4.70484 22.615 4.70637 22.894 4.85787C23.173 5.00938 23.3574 5.29067 23.3851 5.60692L23.4166 5.9651C23.7685 9.98003 23.7685 14.0181 23.4166 18.0331L23.3851 18.3912C23.3574 18.7075 23.173 18.9887 22.894 19.1403C22.615 19.2917 22.2787 19.2934 21.9983 19.1443L17.8613 16.9465C17.6162 18.3915 16.4383 19.5017 14.9746 19.6555L14.2076 19.736C11.2431 20.0476 8.25542 20.0707 5.28645 19.8053L3.2904 19.6267C1.78635 19.4924 0.571113 18.3433 0.352666 16.8491C-0.117555 13.6329 -0.117555 10.3653 0.352666 7.14906C0.571113 5.65489 1.78635 4.50587 3.2904 4.37139L5.28645 4.19292ZM18.0947 14.9855C18.196 15.0014 18.2964 15.0342 18.3919 15.0849L21.6161 16.7979C21.8449 13.6028 21.8449 10.3953 21.6161 7.20025L18.3919 8.91321C18.2964 8.96399 18.196 8.99674 18.0947 9.01264C18.2717 10.9996 18.2717 12.9985 18.0947 14.9855Z" fill="#A2A99A"/>
</svg>
