<svg width="24" height="16" viewBox="0 0 24 16" fill="none" xmlns="http://www.w3.org/2000/svg">
<path fill-rule="evenodd" clip-rule="evenodd" d="M5.28645 0.192915C8.25542 -0.0725505 11.2431 -0.0493819 14.2076 0.262093L14.9746 0.342677C16.4383 0.496465 17.6162 1.60671 17.8613 3.05171L21.9983 0.853784C22.2787 0.704842 22.615 0.706369 22.894 0.857873C23.173 1.00938 23.3574 1.29067 23.3851 1.60692L23.4166 1.9651C23.7685 5.98003 23.7685 10.0181 23.4166 14.0331L23.3851 14.3912C23.3574 14.7075 23.173 14.9887 22.894 15.1403C22.615 15.2917 22.2787 15.2934 21.9983 15.1443L17.8613 12.9465C17.6162 14.3915 16.4383 15.5017 14.9746 15.6555L14.2076 15.736C11.2431 16.0476 8.25542 16.0707 5.28645 15.8053L3.2904 15.6267C1.78635 15.4924 0.571113 14.3433 0.352666 12.8491C-0.117555 9.63285 -0.117555 6.36529 0.352666 3.14906C0.571113 1.65489 1.78635 0.505866 3.2904 0.371385L5.28645 0.192915ZM18.0947 10.9855C18.196 11.0014 18.2964 11.0342 18.3919 11.0849L21.6161 12.7979C21.8449 9.60282 21.8449 6.39532 21.6161 3.20025L18.3919 4.91321C18.2964 4.96399 18.196 4.99674 18.0947 5.01264C18.2717 6.99965 18.2717 8.9985 18.0947 10.9855Z" fill="#162802"/>
</svg>
