<svg width="20" height="24" viewBox="0 0 20 24" fill="none" xmlns="http://www.w3.org/2000/svg">
<path d="M12.3643 1.00153C11.0713 -0.333842 8.92955 -0.333842 7.63659 1.00152L1.3212 7.52393C0.958488 7.89852 0.714767 8.37207 0.620716 8.88492C-0.146274 13.0676 -0.202894 17.3495 0.453251 21.551L0.685548 23.0385C0.758923 23.5083 1.16358 23.8547 1.63911 23.8547H6.05205C6.41549 23.8547 6.71012 23.5601 6.71012 23.1967V13.9837H13.2908V23.1967C13.2908 23.5601 13.5854 23.8547 13.9489 23.8547H18.3617C18.8373 23.8547 19.242 23.5083 19.3153 23.0385L19.5476 21.551C20.2037 17.3495 20.1471 13.0676 19.3802 8.88492C19.2861 8.37207 19.0423 7.89852 18.6796 7.52393L12.3643 1.00153Z" fill="#162802"/>
</svg>
