<svg width="19" height="24" viewBox="0 0 19 24" fill="none" xmlns="http://www.w3.org/2000/svg">
<path fill-rule="evenodd" clip-rule="evenodd" d="M10.4302 1.21519C10.4302 0.544065 9.88617 0 9.21502 0C8.54387 0 7.99983 0.544065 7.99983 1.21519V2.12658H7.32248C4.61858 2.12658 2.38068 4.22887 2.21191 6.92748L1.94334 11.2213C1.84094 12.8584 1.29133 14.4361 0.354341 15.7824C-0.492257 16.9988 0.261429 18.6789 1.73294 18.8555L5.87325 19.3524V20.6582C5.87325 22.5039 7.36939 24 9.21502 24C11.0606 24 12.5568 22.5039 12.5568 20.6582V19.3524L16.6971 18.8555C18.1687 18.6789 18.9223 16.9988 18.0757 15.7824C17.1387 14.4361 16.589 12.8584 16.4867 11.2213L16.2182 6.92748C16.0494 4.22887 13.8115 2.12658 11.1076 2.12658H10.4302V1.21519ZM7.69603 20.6582C7.69603 21.4972 8.37605 22.1772 9.21502 22.1772C10.054 22.1772 10.734 21.4972 10.734 20.6582V19.7468H7.69603V20.6582Z" fill="#162802"/>
</svg>
