<svg width="16" height="16" viewBox="0 0 16 16" fill="none" xmlns="http://www.w3.org/2000/svg">
<g clip-path="url(#clip0_1458_4108)">
<path d="M8.32109 13.307C6.50341 13.307 4.93645 12.7429 3.93359 11.8027C3.93359 11.8654 3.93359 11.8654 3.93359 11.9281C3.93359 13.4951 5.87663 14.6859 8.32109 14.6859C10.7656 14.6859 12.7086 13.4951 12.7086 11.9281C12.7086 11.8654 12.7086 11.8654 12.7086 11.8027C11.7057 12.7429 10.1388 13.307 8.32109 13.307Z" fill="#661800"/>
<path d="M8.32109 13.307C6.50341 13.307 4.93645 12.7429 3.93359 11.8027C3.93359 11.8654 3.93359 11.8654 3.93359 11.9281C3.93359 13.4951 5.87663 14.6859 8.32109 14.6859C10.7656 14.6859 12.7086 13.4951 12.7086 11.9281C12.7086 11.8654 12.7086 11.8654 12.7086 11.8027C11.7057 12.7429 10.1388 13.307 8.32109 13.307Z" fill="black" fill-opacity="0.2"/>
<path d="M12.3952 9.23314C12.2698 9.35849 12.0818 9.48385 11.8938 9.54653C11.7057 9.67189 11.5177 9.73457 11.267 9.85992C10.4522 10.236 9.38663 10.424 8.32109 10.424C7.25556 10.424 6.19002 10.236 5.3752 9.85992C5.18717 9.79724 4.93645 9.67189 4.74842 9.54653C4.56038 9.42117 4.43502 9.35849 4.24699 9.23314C4.12163 9.17046 4.05895 9.10778 3.93359 8.98242C3.93359 9.10778 3.93359 9.29582 3.93359 9.42117C3.93359 9.42117 3.93359 9.48385 3.93359 9.54653C3.93359 9.79724 3.99627 9.98528 4.05895 10.1733C4.12163 10.3614 4.24699 10.5494 4.37234 10.6747C5.12449 11.5522 6.56609 12.179 8.32109 12.179C10.0761 12.179 11.5177 11.5522 12.2698 10.6747C12.3952 10.4867 12.5206 10.3614 12.5832 10.1733C12.7086 9.98528 12.7086 9.73457 12.7086 9.54653C12.7086 9.54653 12.7086 9.48385 12.7086 9.42117C12.7086 9.29582 12.7086 9.17046 12.6459 8.98242C12.5832 9.0451 12.4579 9.17046 12.3952 9.23314Z" fill="#661800"/>
<path d="M12.3952 9.23314C12.2698 9.35849 12.0818 9.48385 11.8938 9.54653C11.7057 9.67189 11.5177 9.73457 11.267 9.85992C10.4522 10.236 9.38663 10.424 8.32109 10.424C7.25556 10.424 6.19002 10.236 5.3752 9.85992C5.18717 9.79724 4.93645 9.67189 4.74842 9.54653C4.56038 9.42117 4.43502 9.35849 4.24699 9.23314C4.12163 9.17046 4.05895 9.10778 3.93359 8.98242C3.93359 9.10778 3.93359 9.29582 3.93359 9.42117C3.93359 9.42117 3.93359 9.48385 3.93359 9.54653C3.93359 9.79724 3.99627 9.98528 4.05895 10.1733C4.12163 10.3614 4.24699 10.5494 4.37234 10.6747C5.12449 11.5522 6.56609 12.179 8.32109 12.179C10.0761 12.179 11.5177 11.5522 12.2698 10.6747C12.3952 10.4867 12.5206 10.3614 12.5832 10.1733C12.7086 9.98528 12.7086 9.73457 12.7086 9.54653C12.7086 9.54653 12.7086 9.48385 12.7086 9.42117C12.7086 9.29582 12.7086 9.17046 12.6459 8.98242C12.5832 9.0451 12.4579 9.17046 12.3952 9.23314Z" fill="black" fill-opacity="0.2"/>
<path d="M12.0818 6.53836C11.8938 6.66372 11.7057 6.78907 11.5177 6.85175C11.3297 6.97711 11.0789 7.03979 10.8282 7.16514C10.0761 7.41586 9.19859 7.60389 8.25841 7.60389C7.31824 7.60389 6.50341 7.41586 5.75127 7.16514C5.50056 7.03979 5.31252 6.97711 5.06181 6.85175C4.87377 6.78907 4.68574 6.66372 4.56038 6.53836C4.30967 6.413 4.12163 6.28765 3.99627 6.09961C3.93359 6.28765 3.93359 6.413 3.93359 6.53836C3.93359 6.66372 3.93359 6.78907 3.99627 6.97711C4.05895 7.16514 4.12163 7.35318 4.24699 7.54122C4.30967 7.72925 4.43502 7.85461 4.56038 7.97997C4.81109 8.23068 5.06181 8.41872 5.3752 8.60675C5.62592 8.73211 5.81395 8.85747 6.12734 8.92015C6.50341 9.0455 6.94216 9.17086 7.38091 9.23354C7.69431 9.29622 8.0077 9.29622 8.32109 9.29622C8.63449 9.29622 8.94788 9.29622 9.26127 9.23354C9.70002 9.17086 10.1388 9.0455 10.5148 8.92015C10.7656 8.85747 11.0163 8.73211 11.267 8.60675C11.5804 8.41872 11.8311 8.23068 12.0818 7.97997C12.2072 7.85461 12.3325 7.66657 12.3952 7.54122C12.5206 7.35318 12.5832 7.16514 12.6459 6.97711C12.7086 6.78907 12.7086 6.66372 12.7086 6.53836C12.7086 6.413 12.7086 6.28765 12.6459 6.09961C12.5206 6.28765 12.3325 6.413 12.0818 6.53836Z" fill="#661800"/>
<path d="M12.0818 6.53836C11.8938 6.66372 11.7057 6.78907 11.5177 6.85175C11.3297 6.97711 11.0789 7.03979 10.8282 7.16514C10.0761 7.41586 9.19859 7.60389 8.25841 7.60389C7.31824 7.60389 6.50341 7.41586 5.75127 7.16514C5.50056 7.03979 5.31252 6.97711 5.06181 6.85175C4.87377 6.78907 4.68574 6.66372 4.56038 6.53836C4.30967 6.413 4.12163 6.28765 3.99627 6.09961C3.93359 6.28765 3.93359 6.413 3.93359 6.53836C3.93359 6.66372 3.93359 6.78907 3.99627 6.97711C4.05895 7.16514 4.12163 7.35318 4.24699 7.54122C4.30967 7.72925 4.43502 7.85461 4.56038 7.97997C4.81109 8.23068 5.06181 8.41872 5.3752 8.60675C5.62592 8.73211 5.81395 8.85747 6.12734 8.92015C6.50341 9.0455 6.94216 9.17086 7.38091 9.23354C7.69431 9.29622 8.0077 9.29622 8.32109 9.29622C8.63449 9.29622 8.94788 9.29622 9.26127 9.23354C9.70002 9.17086 10.1388 9.0455 10.5148 8.92015C10.7656 8.85747 11.0163 8.73211 11.267 8.60675C11.5804 8.41872 11.8311 8.23068 12.0818 7.97997C12.2072 7.85461 12.3325 7.66657 12.3952 7.54122C12.5206 7.35318 12.5832 7.16514 12.6459 6.97711C12.7086 6.78907 12.7086 6.66372 12.7086 6.53836C12.7086 6.413 12.7086 6.28765 12.6459 6.09961C12.5206 6.28765 12.3325 6.413 12.0818 6.53836Z" fill="black" fill-opacity="0.2"/>
<path d="M4.18431 4.6572C4.30967 4.78256 4.43502 4.97059 4.56038 5.09595C4.87377 5.40934 5.24984 5.72273 5.75127 5.91077C6.06467 6.03613 6.37806 6.16148 6.69145 6.22416C7.19288 6.34952 7.75699 6.4122 8.32109 6.4122C8.8852 6.4122 9.44931 6.34952 9.95074 6.22416C10.2641 6.16148 10.6402 6.03613 10.8909 5.91077C11.3923 5.72273 11.7684 5.40934 12.0818 5.09595C12.2072 4.97059 12.3325 4.78256 12.3952 4.6572C12.5206 4.46916 12.5832 4.28113 12.6459 4.09309C12.7086 3.96773 12.7086 3.7797 12.7086 3.65434C12.7086 2.08738 10.7656 0.896484 8.32109 0.896484C5.87663 0.896484 3.93359 2.08738 3.93359 3.65434C3.93359 3.7797 3.93359 3.96773 3.99627 4.09309C4.05895 4.28113 4.12163 4.46916 4.18431 4.6572Z" fill="#661800"/>
<path d="M4.18431 4.6572C4.30967 4.78256 4.43502 4.97059 4.56038 5.09595C4.87377 5.40934 5.24984 5.72273 5.75127 5.91077C6.06467 6.03613 6.37806 6.16148 6.69145 6.22416C7.19288 6.34952 7.75699 6.4122 8.32109 6.4122C8.8852 6.4122 9.44931 6.34952 9.95074 6.22416C10.2641 6.16148 10.6402 6.03613 10.8909 5.91077C11.3923 5.72273 11.7684 5.40934 12.0818 5.09595C12.2072 4.97059 12.3325 4.78256 12.3952 4.6572C12.5206 4.46916 12.5832 4.28113 12.6459 4.09309C12.7086 3.96773 12.7086 3.7797 12.7086 3.65434C12.7086 2.08738 10.7656 0.896484 8.32109 0.896484C5.87663 0.896484 3.93359 2.08738 3.93359 3.65434C3.93359 3.7797 3.93359 3.96773 3.99627 4.09309C4.05895 4.28113 4.12163 4.46916 4.18431 4.6572Z" fill="black" fill-opacity="0.2"/>
</g>
<defs>
<clipPath id="clip0_1458_4108">
<rect width="15.0429" height="15.0429" fill="white" transform="translate(0.799805 0.269531)"/>
</clipPath>
</defs>
</svg>
