<svg width="19" height="19" viewBox="0 0 19 19" fill="none" xmlns="http://www.w3.org/2000/svg">
<path fill-rule="evenodd" clip-rule="evenodd" d="M3.54758 1.2666H3.48424C3.19418 1.2666 2.94464 1.2666 2.72424 1.31853C2.38305 1.40006 2.07109 1.57446 1.82292 1.8224C1.57476 2.07034 1.40008 2.38215 1.31824 2.72327C1.26758 2.94367 1.26758 3.19193 1.26758 3.48327V6.64993C1.26758 6.94 1.26758 7.18953 1.31951 7.40993C1.40104 7.75113 1.57544 8.06309 1.82338 8.31126C2.07132 8.55942 2.38312 8.7341 2.72424 8.81593C2.94464 8.8666 3.19291 8.8666 3.48424 8.8666H6.65091C6.94098 8.8666 7.19051 8.8666 7.41091 8.81467C7.75211 8.73314 8.06407 8.55874 8.31223 8.3108C8.5604 8.06286 8.73507 7.75106 8.81691 7.40993C8.86758 7.18953 8.86758 6.94127 8.86758 6.64993V3.48327C8.86758 3.1932 8.86758 2.94367 8.81564 2.72327C8.73412 2.38207 8.55972 2.07011 8.31178 1.82195C8.06384 1.57378 7.75203 1.3991 7.41091 1.31727C7.19051 1.2666 6.94224 1.2666 6.65091 1.2666H3.54758ZM3.01938 2.551C3.07384 2.53833 3.15871 2.53327 3.54758 2.53327H6.58758C6.97771 2.53327 7.06131 2.53707 7.11578 2.551C7.22956 2.57821 7.33359 2.63641 7.41631 2.71913C7.49904 2.80186 7.55723 2.90588 7.58444 3.01967C7.59711 3.07287 7.60091 3.15647 7.60091 3.5466V6.5866C7.60091 6.97673 7.59711 7.06033 7.58318 7.1148C7.55597 7.22859 7.49777 7.33261 7.41505 7.41534C7.33232 7.49806 7.2283 7.55626 7.11451 7.58347C7.06258 7.59487 6.97898 7.59993 6.58758 7.59993H3.54758C3.15744 7.59993 3.07384 7.59613 3.01938 7.5822C2.90559 7.55499 2.80157 7.4968 2.71884 7.41407C2.63612 7.33134 2.57792 7.22732 2.55071 7.11353C2.53931 7.0616 2.53424 6.978 2.53424 6.5866V3.5466C2.53424 3.15647 2.53804 3.07287 2.55198 3.0184C2.57919 2.90462 2.63738 2.80059 2.72011 2.71787C2.80284 2.63514 2.90686 2.57694 3.02064 2.54973L3.01938 2.551ZM12.4142 1.2666H12.3509C12.0608 1.2666 11.8113 1.2666 11.5909 1.31853C11.2497 1.40006 10.9378 1.57446 10.6896 1.8224C10.4414 2.07034 10.2667 2.38215 10.1849 2.72327C10.1342 2.94367 10.1342 3.19193 10.1342 3.48327V6.64993C10.1342 6.94 10.1342 7.18953 10.1862 7.40993C10.2677 7.75113 10.4421 8.06309 10.69 8.31126C10.938 8.55942 11.2498 8.7341 11.5909 8.81593C11.8113 8.8666 12.0596 8.8666 12.3509 8.8666H15.5176C15.8076 8.8666 16.0572 8.8666 16.2776 8.81467C16.6188 8.73314 16.9307 8.55874 17.1789 8.3108C17.4271 8.06286 17.6017 7.75106 17.6836 7.40993C17.7342 7.18953 17.7342 6.94127 17.7342 6.64993V3.48327C17.7342 3.1932 17.7342 2.94367 17.6823 2.72327C17.6008 2.38207 17.4264 2.07011 17.1784 1.82195C16.9305 1.57378 16.6187 1.3991 16.2776 1.31727C16.0572 1.2666 15.8089 1.2666 15.5176 1.2666H12.4142ZM11.886 2.551C11.9405 2.53833 12.0254 2.53327 12.4142 2.53327H15.4542C15.8444 2.53327 15.928 2.53707 15.9824 2.551C16.0962 2.57821 16.2003 2.63641 16.283 2.71913C16.3657 2.80186 16.4239 2.90588 16.4511 3.01967C16.4638 3.07287 16.4676 3.15647 16.4676 3.5466V6.5866C16.4676 6.97673 16.4625 7.06033 16.4498 7.1148C16.4226 7.22859 16.3644 7.33261 16.2817 7.41534C16.199 7.49806 16.095 7.55626 15.9812 7.58347C15.928 7.59613 15.8444 7.59993 15.4542 7.59993H12.4142C12.0241 7.59993 11.9405 7.59613 11.886 7.5822C11.7723 7.55499 11.6682 7.4968 11.5855 7.41407C11.5028 7.33134 11.4446 7.22732 11.4174 7.11353C11.406 7.0616 11.4009 6.978 11.4009 6.5866V3.5466C11.4009 3.15647 11.4047 3.07287 11.4186 3.0184C11.4459 2.90462 11.504 2.80059 11.5868 2.71787C11.6695 2.63514 11.7735 2.57694 11.8873 2.54973L11.886 2.551ZM3.48424 10.1333H6.65091C6.94098 10.1333 7.19051 10.1333 7.41091 10.1852C7.75211 10.2667 8.06407 10.4411 8.31223 10.6891C8.5604 10.937 8.73507 11.2488 8.81691 11.5899C8.86758 11.8103 8.86758 12.0586 8.86758 12.3499V15.5166C8.86758 15.8067 8.86758 16.0562 8.81564 16.2766C8.73412 16.6178 8.55972 16.9298 8.31178 17.1779C8.06384 17.4261 7.75203 17.6008 7.41091 17.6826C7.19051 17.7333 6.94224 17.7333 6.65091 17.7333H3.48424C3.19418 17.7333 2.94464 17.7333 2.72424 17.6813C2.38305 17.5998 2.07109 17.4254 1.82292 17.1775C1.57476 16.9295 1.40008 16.6177 1.31824 16.2766C1.26758 16.0562 1.26758 15.8079 1.26758 15.5166V12.3499C1.26758 12.0599 1.26758 11.8103 1.31951 11.5899C1.40104 11.2487 1.57544 10.9368 1.82338 10.6886C2.07132 10.4404 2.38312 10.2658 2.72424 10.1839C2.94464 10.1333 3.19291 10.1333 3.48424 10.1333ZM3.54758 11.3999C3.15744 11.3999 3.07384 11.4037 3.01938 11.4177C2.90559 11.4449 2.80157 11.5031 2.71884 11.5858C2.63612 11.6685 2.57792 11.7725 2.55071 11.8863C2.53931 11.9383 2.53424 12.0219 2.53424 12.4133V15.4533C2.53424 15.8434 2.53804 15.927 2.55198 15.9815C2.57919 16.0953 2.63738 16.1993 2.72011 16.282C2.80284 16.3647 2.90686 16.4229 3.02064 16.4501C3.07384 16.4628 3.15744 16.4666 3.54758 16.4666H6.58758C6.97771 16.4666 7.06131 16.4615 7.11578 16.4489C7.22956 16.4217 7.33359 16.3635 7.41631 16.2807C7.49904 16.198 7.55723 16.094 7.58444 15.9802C7.59711 15.927 7.60091 15.8434 7.60091 15.4533V12.4133C7.60091 12.0231 7.59711 11.9395 7.58318 11.8851C7.55597 11.7713 7.49777 11.6673 7.41505 11.5845C7.33232 11.5018 7.2283 11.4436 7.11451 11.4164C7.06258 11.405 6.97898 11.3999 6.58758 11.3999H3.54758ZM12.4142 10.1333H12.3509C12.0608 10.1333 11.8113 10.1333 11.5909 10.1852C11.2497 10.2667 10.9378 10.4411 10.6896 10.6891C10.4414 10.937 10.2667 11.2488 10.1849 11.5899C10.1342 11.8103 10.1342 12.0586 10.1342 12.3499V15.5166C10.1342 15.8067 10.1342 16.0562 10.1862 16.2766C10.2677 16.6178 10.4421 16.9298 10.69 17.1779C10.938 17.4261 11.2498 17.6008 11.5909 17.6826C11.8113 17.7345 12.0608 17.7345 12.3509 17.7345H15.5176C15.8076 17.7345 16.0572 17.7345 16.2776 17.6826C16.6185 17.6009 16.9302 17.4264 17.1782 17.1785C17.4261 16.9305 17.6006 16.6188 17.6823 16.2779C17.7342 16.0575 17.7342 15.8079 17.7342 15.5179V12.3499C17.7342 12.0599 17.7342 11.8103 17.6823 11.5899C17.6008 11.2487 17.4264 10.9368 17.1784 10.6886C16.9305 10.4404 16.6187 10.2658 16.2776 10.1839C16.0572 10.1333 15.8089 10.1333 15.5176 10.1333H12.4142ZM11.886 11.4177C11.9405 11.405 12.0254 11.3999 12.4142 11.3999H15.4542C15.8444 11.3999 15.928 11.4037 15.9824 11.4177C16.0962 11.4449 16.2003 11.5031 16.283 11.5858C16.3657 11.6685 16.4239 11.7725 16.4511 11.8863C16.4638 11.9395 16.4676 12.0231 16.4676 12.4133V15.4533C16.4676 15.8434 16.4625 15.927 16.4498 15.9815C16.4226 16.0953 16.3644 16.1993 16.2817 16.282C16.199 16.3647 16.095 16.4229 15.9812 16.4501C15.928 16.4628 15.8444 16.4666 15.4542 16.4666H12.4142C12.0241 16.4666 11.9405 16.4615 11.886 16.4489C11.7723 16.4217 11.6682 16.3635 11.5855 16.2807C11.5028 16.198 11.4446 16.094 11.4174 15.9802C11.406 15.9283 11.4009 15.8447 11.4009 15.4533V12.4133C11.4009 12.0231 11.4047 11.9395 11.4186 11.8851C11.4459 11.7713 11.504 11.6673 11.5868 11.5845C11.6695 11.5018 11.7735 11.4436 11.8873 11.4164L11.886 11.4177Z" fill="#405066"/>
</svg>
