<svg width="24" height="24" viewBox="0 0 24 24" fill="none" xmlns="http://www.w3.org/2000/svg">
<rect width="24" height="24" rx="5" fill="#070D2D"/>
<g clip-path="url(#clip0_1625_7612)">
<path d="M17.1569 11.2325C17.111 9.92355 16.5809 8.69955 15.6502 7.7688C14.6746 6.79305 13.3781 6.25586 11.9996 6.25586C9.21537 6.25586 6.94043 8.47192 6.84237 11.2325C6.41749 11.4213 6.12012 11.8465 6.12012 12.3408V13.7024C6.12012 14.371 6.66405 14.9152 7.33287 14.9152C7.76562 14.9152 8.11755 14.5632 8.11755 14.1305V11.9125C8.11755 11.5062 7.80593 11.1749 7.40974 11.1355C7.55599 8.73048 9.55812 6.81836 11.9996 6.81836C13.2281 6.81836 14.3832 7.29723 15.2527 8.16667C16.0511 8.96505 16.5183 10.0057 16.5886 11.1357C16.1928 11.1755 15.8817 11.5066 15.8817 11.9125V14.1303C15.8817 14.54 16.1982 14.8734 16.5991 14.908V15.4685C16.5991 16.0996 16.0856 16.613 15.4544 16.613H14.6067C14.5651 16.4941 14.4999 16.3842 14.4084 16.2931C14.2481 16.132 14.0343 16.0434 13.8067 16.0434H12.9329C12.8075 16.0434 12.6871 16.07 12.5769 16.1214C12.2761 16.2595 12.0819 16.5629 12.0819 16.8942C12.0819 17.1219 12.1706 17.3356 12.3312 17.4955C12.4919 17.6566 12.7057 17.7453 12.9329 17.7453H13.8067C14.1689 17.7453 14.4882 17.5111 14.6073 17.1755H15.4544C16.3959 17.1755 17.1616 16.4097 17.1616 15.4685V14.8079C17.5839 14.618 17.879 14.1942 17.879 13.702V12.3404C17.879 11.8465 17.5816 11.4213 17.1569 11.2325ZM7.55487 11.9125V14.1303C7.55487 14.2527 7.4553 14.3525 7.33268 14.3525C6.97418 14.3525 6.68243 14.0607 6.68243 13.7022V12.3406C6.68243 11.9819 6.97418 11.6904 7.33268 11.6904C7.4553 11.6904 7.55487 11.7901 7.55487 11.9125ZM14.0889 16.9546C14.0609 17.087 13.9421 17.1832 13.8065 17.1832H12.9327C12.8559 17.1832 12.7837 17.1532 12.7286 17.098C12.6742 17.0439 12.6442 16.9715 12.6442 16.8946C12.6442 16.7823 12.71 16.6797 12.8131 16.6323C12.8499 16.615 12.8902 16.6062 12.9327 16.6062H13.8065C13.8834 16.6062 13.9556 16.636 14.0105 16.6912C14.0649 16.7454 14.0949 16.8177 14.0949 16.8946C14.0951 16.9152 14.0928 16.9359 14.0889 16.9546ZM17.3165 13.7022C17.3165 14.0607 17.0247 14.3525 16.6662 14.3525C16.5438 14.3525 16.4441 14.2529 16.4441 14.1303V11.9125C16.4441 11.7901 16.5436 11.6904 16.6662 11.6904C17.0247 11.6904 17.3165 11.9821 17.3165 12.3406V13.7022Z" fill="white"/>
<path d="M13.8205 13.8001C14.4776 13.8001 15.0122 13.2653 15.0122 12.6083V10.18C15.0122 9.86241 14.8881 9.56316 14.6627 9.33778C14.4373 9.11241 14.1383 8.98828 13.8205 8.98828H10.1781C9.52089 8.98828 8.98633 9.52284 8.98633 10.18V12.6083C8.98633 13.2655 9.52089 13.8001 10.1781 13.8001H10.2004V14.4293C10.2004 14.6693 10.3435 14.8823 10.5647 14.9722C10.6361 15.0008 10.7104 15.0151 10.7839 15.0151C10.9371 15.0151 11.0863 14.9543 11.1956 14.8413L12.2425 13.8001H13.8205ZM11.9284 13.3193L10.7955 14.446C10.7905 14.4513 10.7867 14.4552 10.776 14.4505C10.7631 14.4453 10.7631 14.4368 10.7631 14.4293V13.5188C10.7631 13.3636 10.6373 13.2376 10.4818 13.2376H10.1783C9.8312 13.2376 9.54902 12.9552 9.54902 12.6083V10.18C9.54902 9.83297 9.8312 9.55078 10.1783 9.55078H13.8206C13.9883 9.55078 14.146 9.61641 14.2652 9.73547C14.3845 9.85472 14.4499 10.0126 14.4499 10.18V12.6083C14.4499 12.9554 14.1675 13.2376 13.8206 13.2376H12.1268C12.0523 13.2376 11.9811 13.267 11.9284 13.3193Z" fill="white"/>
<path d="M10.6337 11.0234C10.4049 11.0234 10.2188 11.2098 10.2188 11.4384C10.2188 11.6669 10.4051 11.8533 10.6337 11.8533C10.8626 11.8533 11.049 11.6669 11.049 11.4384C11.049 11.2098 10.8628 11.0234 10.6337 11.0234Z" fill="white"/>
<path d="M11.9989 11.0234C11.7702 11.0234 11.584 11.2098 11.584 11.4384C11.584 11.6669 11.7704 11.8533 11.9989 11.8533C12.228 11.8533 12.4142 11.6669 12.4142 11.4384C12.4142 11.2098 12.228 11.0234 11.9989 11.0234Z" fill="white"/>
<path d="M13.3651 11.0234C13.1364 11.0234 12.9502 11.2098 12.9502 11.4384C12.9502 11.6669 13.1366 11.8533 13.3651 11.8533C13.5941 11.8533 13.7804 11.6669 13.7804 11.4384C13.7804 11.2098 13.5941 11.0234 13.3651 11.0234Z" fill="white"/>
</g>
<defs>
<clipPath id="clip0_1625_7612">
<rect width="12" height="12" fill="white" transform="translate(6 6)"/>
</clipPath>
</defs>
</svg>
