<svg width="32" height="24" viewBox="0 0 32 24" fill="none" xmlns="http://www.w3.org/2000/svg">
<path d="M14.8571 23.9999L10.2857 23.9999C10.1163 24.002 9.94847 23.9751 9.79499 23.9214C9.64151 23.8676 9.50642 23.7882 9.4 23.6894C9.29419 23.5918 9.21877 23.4778 9.17923 23.3555C9.13969 23.2333 9.13702 23.106 9.17143 22.9829L11.1714 15.4362L7.32857 15.4362L5.37143 16.8813C5.26623 16.9597 5.14142 17.0218 5.00415 17.0641C4.86687 17.1063 4.71983 17.1279 4.57143 17.1275L1.14286 17.1275C0.956645 17.1282 0.773102 17.0943 0.60859 17.029C0.444078 16.9636 0.303707 16.8687 0.199996 16.7528C0.0718614 16.6104 0.0023254 16.4429 -7.11233e-07 16.2711C0.000734141 16.1609 0.0298377 16.0519 0.0857136 15.95L2.2 11.9893L0.085714 8.02854C0.0151935 7.89799 -0.0112739 7.75643 0.00866094 7.61639C0.0285958 7.47635 0.0943145 7.34215 0.199997 7.22569C0.303708 7.1098 0.444079 7.01494 0.608591 6.94957C0.773103 6.8842 0.956646 6.85034 1.14286 6.85103L4.57143 6.85103C4.87548 6.84974 5.168 6.93819 5.38571 7.09723L7.32857 8.56377L11.1714 8.56377L9.17143 1.0277C9.13486 0.903396 9.13622 0.774516 9.17539 0.650663C9.21456 0.526811 9.29053 0.411181 9.39765 0.312395C9.50476 0.213609 9.64025 0.134215 9.79402 0.0801332C9.94778 0.0260511 10.1159 -0.0013242 10.2857 4.82174e-05L14.8571 4.84172e-05C15.0695 0.00133871 15.2773 0.0458442 15.4585 0.128806C15.6397 0.211768 15.7873 0.330067 15.8857 0.471053L21.2857 8.56377L27.4286 8.56377C28.641 8.56377 29.8037 8.92467 30.6611 9.56707C31.5184 10.2095 32 11.0808 32 11.9893C32 12.8978 31.5184 13.769 30.6611 14.4114C29.8037 15.0539 28.641 15.4148 27.4286 15.4148L21.2857 15.4148L15.8857 23.5075C15.7912 23.6525 15.6452 23.7751 15.4638 23.862C15.2823 23.9489 15.0724 23.9966 14.8571 23.9999Z" fill="#03947A"/>
</svg>
