<svg width="29" height="28" viewBox="0 0 29 28" fill="none" xmlns="http://www.w3.org/2000/svg">
<path d="M17.6939 1.39597C15.9456 -0.100737 13.0497 -0.100738 11.3014 1.39596L2.76205 8.70637C2.2716 9.12621 1.94206 9.65698 1.81489 10.2318C0.777802 14.9198 0.701243 19.719 1.58845 24.4281L1.90255 26.0953C2.00176 26.6219 2.54892 27.0102 3.19191 27.0102H9.15886C9.65028 27.0102 10.0487 26.6799 10.0487 26.2726V15.9466H18.9468V26.2726C18.9468 26.6799 19.345 27.0102 19.8366 27.0102H25.8034C26.4464 27.0102 26.9936 26.6219 27.0927 26.0953L27.4068 24.4281C28.294 19.719 28.2174 14.9198 27.1805 10.2318C27.0532 9.65698 26.7236 9.12621 26.2332 8.70637L17.6939 1.39597Z" fill="#9591B5"/>
</svg>
