<svg width="17" height="17" viewBox="0 0 17 17" fill="none" xmlns="http://www.w3.org/2000/svg">
<path d="M12.1263 10.7476C11.9996 10.7476 11.8729 10.7009 11.7729 10.6009C11.5796 10.4076 11.5796 10.0876 11.7729 9.89427L13.1263 8.54094L11.7729 7.1876C11.5796 6.99427 11.5796 6.67427 11.7729 6.48094C11.9663 6.2876 12.2863 6.2876 12.4796 6.48094L14.1863 8.1876C14.3796 8.38094 14.3796 8.70094 14.1863 8.89427L12.4796 10.6009C12.3796 10.7009 12.2529 10.7476 12.1263 10.7476Z" fill="#202833"/>
<path d="M13.7868 9.03906H7.00684C6.7335 9.03906 6.50684 8.8124 6.50684 8.53906C6.50684 8.26573 6.7335 8.03906 7.00684 8.03906H13.7868C14.0602 8.03906 14.2868 8.26573 14.2868 8.53906C14.2868 8.8124 14.0602 9.03906 13.7868 9.03906Z" fill="#202833"/>
<path d="M8.34017 14.3327C4.90684 14.3327 2.50684 11.9327 2.50684 8.49935C2.50684 5.06602 4.90684 2.66602 8.34017 2.66602C8.6135 2.66602 8.84017 2.89268 8.84017 3.16602C8.84017 3.43935 8.6135 3.66602 8.34017 3.66602C5.4935 3.66602 3.50684 5.65268 3.50684 8.49935C3.50684 11.346 5.4935 13.3327 8.34017 13.3327C8.6135 13.3327 8.84017 13.5593 8.84017 13.8327C8.84017 14.106 8.6135 14.3327 8.34017 14.3327Z" fill="#202833"/>
</svg>
