<svg width="14" height="4" viewBox="0 0 14 4" fill="none" xmlns="http://www.w3.org/2000/svg">
<path d="M2.44318 3.16477C2.03409 3.16477 1.68371 3.02083 1.39205 2.73295C1.10417 2.44508 0.962121 2.09659 0.965909 1.6875C0.962121 1.28598 1.10417 0.943182 1.39205 0.659091C1.68371 0.371212 2.03409 0.227273 2.44318 0.227273C2.82955 0.227273 3.17045 0.371212 3.46591 0.659091C3.76515 0.943182 3.91667 1.28598 3.92045 1.6875C3.91667 1.96023 3.8447 2.20833 3.70455 2.43182C3.56818 2.6553 3.38826 2.83333 3.16477 2.96591C2.94508 3.09848 2.70455 3.16477 2.44318 3.16477ZM7.31818 3.16477C6.90909 3.16477 6.55871 3.02083 6.26705 2.73295C5.97917 2.44508 5.83712 2.09659 5.84091 1.6875C5.83712 1.28598 5.97917 0.943182 6.26705 0.659091C6.55871 0.371212 6.90909 0.227273 7.31818 0.227273C7.70455 0.227273 8.04545 0.371212 8.34091 0.659091C8.64015 0.943182 8.79167 1.28598 8.79545 1.6875C8.79167 1.96023 8.7197 2.20833 8.57955 2.43182C8.44318 2.6553 8.26326 2.83333 8.03977 2.96591C7.82008 3.09848 7.57955 3.16477 7.31818 3.16477ZM12.1932 3.16477C11.7841 3.16477 11.4337 3.02083 11.142 2.73295C10.8542 2.44508 10.7121 2.09659 10.7159 1.6875C10.7121 1.28598 10.8542 0.943182 11.142 0.659091C11.4337 0.371212 11.7841 0.227273 12.1932 0.227273C12.5795 0.227273 12.9205 0.371212 13.2159 0.659091C13.5152 0.943182 13.6667 1.28598 13.6705 1.6875C13.6667 1.96023 13.5947 2.20833 13.4545 2.43182C13.3182 2.6553 13.1383 2.83333 12.9148 2.96591C12.6951 3.09848 12.4545 3.16477 12.1932 3.16477Z" fill="#FF8B66"/>
</svg>
