<svg width="26" height="28" viewBox="0 0 26 28" fill="none" xmlns="http://www.w3.org/2000/svg">
<path fill-rule="evenodd" clip-rule="evenodd" d="M14.3723 1.59784C14.3723 0.841588 13.6465 0.228516 12.7512 0.228516C11.8559 0.228516 11.1302 0.841588 11.1302 1.59784V2.62483H10.2266C6.61963 2.62483 3.6343 4.99376 3.40916 8.03465L3.05089 12.8731C2.9143 14.7178 2.18111 16.4956 0.931184 18.0127C-0.19817 19.3834 0.807239 21.2766 2.77022 21.4756L8.29335 22.0355V23.507C8.29335 25.5867 10.2892 27.2726 12.7512 27.2726C15.2133 27.2726 17.2091 25.5867 17.2091 23.507V22.0355L22.7322 21.4756C24.6953 21.2766 25.7007 19.3834 24.5713 18.0127C23.3213 16.4956 22.5881 14.7178 22.4516 12.8731L22.0934 8.03465C21.8682 4.99376 18.8829 2.62483 15.2759 2.62483H14.3723V1.59784ZM10.7249 23.507C10.7249 24.4523 11.6321 25.2186 12.7512 25.2186C13.8704 25.2186 14.7776 24.4523 14.7776 23.507V22.48H10.7249V23.507Z" fill="#9591B5"/>
</svg>
