<svg width="16" height="16" viewBox="0 0 16 16" fill="none" xmlns="http://www.w3.org/2000/svg">
<path d="M9.1607 0.406462C8.4466 -0.0235081 7.5534 -0.0235081 6.8393 0.406462L6.323 0.717352C5.07029 1.47169 3.66391 1.93458 2.20803 2.07174L1.88275 2.10239C1.24066 2.16288 0.75 2.70194 0.75 3.34688V4.99076C0.75 7.76939 1.87808 10.429 3.87584 12.3602L7.1312 15.5072C7.6157 15.9756 8.3843 15.9756 8.8688 15.5072L12.1242 12.3602C14.1219 10.429 15.25 7.76939 15.25 4.99076V3.34688C15.25 2.70194 14.7593 2.16288 14.1172 2.10239L13.792 2.07174C12.3361 1.93458 10.9297 1.47169 9.677 0.717352L9.1607 0.406462Z" fill="#162802"/>
</svg>
