<svg width="28" height="28" viewBox="0 0 28 28" fill="none" xmlns="http://www.w3.org/2000/svg">
<path fill-rule="evenodd" clip-rule="evenodd" d="M12.4009 0.228516C5.8161 0.228516 0.478027 5.56659 0.478027 12.1514C0.478027 18.7363 5.8161 24.0743 12.4009 24.0743C15.2161 24.0743 17.8033 23.0986 19.8431 21.4671L25.6486 27.2726L27.5221 25.3991L21.7166 19.5936C23.3482 17.5538 24.3238 14.9666 24.3238 12.1514C24.3238 5.56659 18.9858 0.228516 12.4009 0.228516ZM3.12756 12.1514C3.12756 7.02989 7.2794 2.87805 12.4009 2.87805C17.5225 2.87805 21.6743 7.02989 21.6743 12.1514C21.6743 17.273 17.5225 21.4248 12.4009 21.4248C7.2794 21.4248 3.12756 17.273 3.12756 12.1514Z" fill="#9591B5"/>
</svg>
