<svg width="31" height="5" viewBox="0 0 31 5" fill="none" xmlns="http://www.w3.org/2000/svg">
<path d="M2.58333 0C1.1625 0 0 1.125 0 2.5C0 3.875 1.1625 5 2.58333 5C4.00417 5 5.16667 3.875 5.16667 2.5C5.16667 1.125 4.00417 0 2.58333 0ZM28.4167 0C26.9958 0 25.8333 1.125 25.8333 2.5C25.8333 3.875 26.9958 5 28.4167 5C29.8375 5 31 3.875 31 2.5C31 1.125 29.8375 0 28.4167 0ZM15.5 0C14.0792 0 12.9167 1.125 12.9167 2.5C12.9167 3.875 14.0792 5 15.5 5C16.9208 5 18.0833 3.875 18.0833 2.5C18.0833 1.125 16.9208 0 15.5 0Z" fill="#FF6433"/>
</svg>
